<?xml version="1.0" encoding="utf-8"?>
<!-- Generator: Adobe Illustrator 18.1.1, SVG Export Plug-In . SVG Version: 6.00 Build 0)  -->
<svg version="1.1" id="Layer_1" xmlns="http://www.w3.org/2000/svg" xmlns:xlink="http://www.w3.org/1999/xlink" x="0px" y="0px"
	 viewBox="0 0 56.5 56.5" enable-background="new 0 0 56.5 56.5" xml:space="preserve">
<path fill="#D1D3D4" d="M56.5,54.1c0,1.3-1.1,2.4-2.4,2.4H2.4c-1.3,0-2.4-1.1-2.4-2.4V2.4C0,1.1,1.1,0,2.4,0h51.7
	c1.3,0,2.4,1.1,2.4,2.4V54.1z"/>
<linearGradient id="SVGID_1_" gradientUnits="userSpaceOnUse" x1="23.5335" y1="23.512" x2="54.5525" y2="54.531">
	<stop  offset="0" style="stop-color:#D1D3D4"/>
	<stop  offset="0.2133" style="stop-color:#CBCDCE"/>
	<stop  offset="0.4629" style="stop-color:#BBBCBE"/>
	<stop  offset="0.7306" style="stop-color:#A0A2A4"/>
	<stop  offset="1" style="stop-color:#808285"/>
</linearGradient>
<path fill="url(#SVGID_1_)" d="M1.5,53.7c0,0.3,0.3,1.2,1.5,1.2h8c0,0,0,0,0.1,0h42.6c0,0,1.3,0,1.4-1.5V2.8c0,0,0,0,0,0
	c0-0.3-0.3-1.2-1.5-1.2l-8,0C67.1,1.6,34.4,53.7,1.5,53.7L1.5,53.7z"/>
<linearGradient id="SVGID_2_" gradientUnits="userSpaceOnUse" x1="-1.1342" y1="5.6452" x2="36.2679" y2="37.0293">
	<stop  offset="0.2198" style="stop-color:#FFFFFF"/>
	<stop  offset="0.6163" style="stop-color:#FEFEFE"/>
	<stop  offset="0.7592" style="stop-color:#F8F8F9"/>
	<stop  offset="0.861" style="stop-color:#EEEEEF"/>
	<stop  offset="0.9427" style="stop-color:#E0E0E1"/>
	<stop  offset="1" style="stop-color:#D1D3D4"/>
</linearGradient>
<path fill="url(#SVGID_2_)" d="M45.5,1.6H2.9c0,0-1.3,0-1.4,1.5c0,6.2,0,30.5,0,50.6C34.4,53.7,67.1,1.6,45.5,1.6z"/>
<path fill="#3C3C3B" d="M5.5,16.5v20.7h4.1v-7.9h2.8c6,0,7.8-3.1,7.8-6.2c0-3-2-6.5-6.8-6.5H5.5z M9.6,25.8V20h0.9
	c2.3,0,5.5-0.4,5.5,2.9c0,3.2-3.3,2.9-5.5,2.9H9.6z M34.6,21.9c-0.3-3.5-3-5.7-6.5-5.7c-3.6,0-6.7,2.7-6.7,6.4c0,7,9.7,4.7,9.7,8.8
	c0,1.8-1.4,2.6-3,2.6c-2,0-2.9-1.3-3.2-3.1l-4.1,0.6c0.6,4,3.5,6,7.4,6c5.1,0,7-3.8,7-6.3c0-7.7-9.7-5.1-9.7-9.1
	c0-1.4,1.2-2.4,2.5-2.4c1.7,0,2.5,1.5,2.9,2.9L34.6,21.9z M52,27.2c0.4-5-1.3-11.3-7.2-11.3c-4.6,0-8.2,3.2-8.2,10.8
	c0,7.7,3.6,10.8,8.2,10.8c3.5,0,6.3-2,7.4-4.6l-2.1-1.4c-1,1.8-2.9,3.5-5,3.5c-3,0-5.4-2-5.4-7.9H52z M39.7,24.7
	c0-2.9,1.6-6.4,4.9-6.4c3,0,4.4,3.8,4.4,6.4H39.7z"/>
<g>
	<rect x="40.1" y="41" fill="#006683" width="11.1" height="11.1"/>
	<rect x="22.8" y="41" fill="#EF7E06" width="11.1" height="11.1"/>
	<rect x="5.4" y="41" fill="#3C3C3B" width="11.1" height="11.1"/>
</g>
</svg>
